<svg width="120" height="120" viewBox="0 0 120 120" fill="none" xmlns="http://www.w3.org/2000/svg">
<g id="bulb-icon" clip-path="url(#clip0_580_309)">
<g id="bulb">
<path id="Vector" d="M70.2101 74.9763C74.8512 73.7479 78.8706 71.0939 81.8338 67.3011C85.467 62.6508 87.049 56.8666 86.2884 51.0138C85.5279 45.1623 82.5166 39.9705 77.8133 36.4041C73.2564 32.9466 67.5971 31.4375 61.878 32.1549C56.1591 32.8723 51.0475 35.7323 47.4849 40.2078C44.4308 44.0447 42.7845 48.6569 42.7239 53.5461C42.6255 61.4832 39.9502 69.2094 35.1906 75.3015L29.9826 81.9674C27.6725 84.9242 28.1986 89.2091 31.1554 91.5193L36.1432 95.4162C39.1 97.7263 43.385 97.2 45.6951 94.2433L50.9027 87.5779C55.7151 81.4186 62.3769 77.0494 70.2101 74.9763ZM45.5282 53.581C45.5809 49.3202 47.0163 45.2998 49.679 41.9546C56.076 33.9183 67.9365 32.4305 76.118 38.6383C80.2201 41.7554 82.8442 46.2743 83.507 51.3755C84.1703 56.4779 82.791 61.5206 79.6237 65.5746C77.0404 68.8811 73.5371 71.1947 69.4924 72.2652C61.2388 74.4497 54.1637 78.9936 48.9981 85.4205L37.7219 76.6105C42.6562 70.1045 45.4245 61.9482 45.5282 53.581ZM32.7777 82.9452L33.4766 82.0506L43.7585 92.1671L43.4852 92.5168C43.3413 92.701 43.182 92.8655 43.0145 93.0172L32.7777 82.9452ZM35.2145 79.8261L35.9983 78.8229L47.2909 87.6457L45.4964 89.9426L35.2145 79.8261ZM32.8819 89.3094C31.6949 88.382 31.1755 86.9133 31.3973 85.5213L40.0587 94.0434C39.2875 93.9915 38.5236 93.7169 37.87 93.2063L32.882 89.3093L32.8819 89.3094Z" fill="black"/>
<path id="Vector_2" d="M52.3713 46.9591C52.7369 46.3135 53.1599 45.6874 53.6288 45.0985C54.1112 44.4926 54.011 43.6104 53.4051 43.1281C52.8031 42.6492 51.9171 42.7459 51.4347 43.3518C50.8746 44.0554 50.3686 44.8041 49.9307 45.5774C49.584 46.1897 49.7478 46.9519 50.2862 47.3725C50.3404 47.4148 50.3985 47.4538 50.4601 47.4887C51.1341 47.87 51.9897 47.6331 52.3713 46.9591Z" fill="black"/>
<path id="Vector_3" d="M45.7608 68.8242C45.8751 68.9135 46.0055 68.9865 46.1495 69.0385C46.8782 69.3008 47.6816 68.9227 47.9438 68.1941C49.6288 63.5132 50.5144 58.6175 50.576 53.6434C50.5862 52.8212 50.6674 52.0003 50.8176 51.2035C50.9609 50.4424 50.46 49.7093 49.6989 49.566C48.9379 49.4227 48.2047 49.9235 48.0614 50.6846C47.8815 51.6407 47.7839 52.6244 47.7717 53.6088C47.714 58.2701 46.8842 62.8577 45.3052 67.2442C45.0947 67.8288 45.2964 68.4614 45.7608 68.8242Z" fill="black"/>
<path id="Vector_4" d="M73.2512 66.689C72.8794 66.0097 72.0271 65.7604 71.3479 66.1323C70.3627 66.6718 69.3038 67.0932 68.2008 67.385C67.4521 67.5831 67.0059 68.3508 67.2039 69.0994C67.2852 69.4069 67.4627 69.6632 67.6953 69.845C68.0293 70.1059 68.4771 70.213 68.9185 70.0961C70.2403 69.7463 71.5107 69.2402 72.6945 68.5923C73.3739 68.2205 73.6233 67.3683 73.2512 66.689Z" fill="black"/>
<path id="Vector_5" d="M73.2294 42.7851C79.3219 47.5451 80.4059 56.3743 75.6459 62.4668C75.3753 62.8132 75.0867 63.1498 74.7881 63.4672C74.2576 64.0315 74.2848 64.9187 74.8489 65.4494C74.8808 65.4793 74.9136 65.5075 74.9475 65.534C75.5122 65.9752 76.3304 65.9209 76.831 65.3886C77.1879 65.009 77.5328 64.607 77.8559 64.1934C83.568 56.8823 82.2672 46.2871 74.9561 40.5751C74.3458 40.0983 73.4645 40.2065 72.9878 40.8168C72.511 41.427 72.6192 42.3083 73.2294 42.7851Z" fill="black"/>
</g>
<g id="light-vector">
<path id="Vector_6" d="M79.5526 34.6909C80.1628 35.1677 81.0441 35.0595 81.5209 34.4492L86.3555 28.2612C86.8322 27.651 86.724 26.7697 86.1138 26.2929C85.5035 25.8161 84.6223 25.9243 84.1455 26.5346L79.3109 32.7226C78.8341 33.3328 78.9423 34.2141 79.5526 34.6909Z" fill="black"/>
<path id="Vector_7" d="M66.668 28.1403C66.5957 28.655 66.8121 29.1432 67.194 29.4416C67.3814 29.588 67.6088 29.6887 67.8613 29.7242C68.6282 29.832 69.3374 29.2977 69.4452 28.5309L70.538 20.7577C70.6457 19.9906 70.1115 19.2816 69.3447 19.1738C68.5778 19.0661 67.8686 19.6003 67.7608 20.3672L66.668 28.1403Z" fill="black"/>
<path id="Vector_8" d="M78.4055 84.834L75.4646 77.5561C75.1745 76.8378 74.3571 76.491 73.6391 76.7814C72.9211 77.0715 72.5742 77.8888 72.8644 78.6069L75.8053 85.8848C75.9008 86.1212 76.0534 86.3173 76.241 86.4638C76.6229 86.7622 77.1492 86.8541 77.6308 86.6595C78.3489 86.3694 78.6956 85.552 78.4055 84.834Z" fill="black"/>
<path id="Vector_9" d="M50.486 23.2198L53.4269 30.4977C53.5224 30.7341 53.675 30.9302 53.8626 31.0767C54.2444 31.3751 54.7708 31.467 55.2524 31.2724C55.9704 30.9823 56.3174 30.165 56.0271 29.4469L53.0862 22.169C52.7963 21.4508 51.9788 21.104 51.2607 21.3942C50.5427 21.6843 50.1959 22.5015 50.486 23.2198Z" fill="black"/>
<path id="Vector_10" d="M91.938 73.7266L85.75 68.892C85.1398 68.4152 84.2585 68.5234 83.7817 69.1337C83.3049 69.7439 83.4131 70.6252 84.0234 71.102L90.2113 75.9366C90.8216 76.4133 91.7029 76.3051 92.1797 75.6949C92.6564 75.0846 92.5484 74.2035 91.938 73.7266Z" fill="black"/>
<path id="Vector_11" d="M45.1099 38.9198C45.5866 38.3096 45.4784 37.4283 44.8682 36.9515L38.6802 32.1169C38.0699 31.6401 37.1887 31.7483 36.7119 32.3586C36.2351 32.9689 36.3433 33.8501 36.9536 34.3269L43.1415 39.1615C43.7519 39.6384 44.6331 39.5301 45.1099 38.9198Z" fill="black"/>
<path id="Vector_12" d="M89.2746 58.7435C89.462 58.8899 89.6893 58.9907 89.9418 59.0262L97.715 60.119C98.4819 60.2268 99.1911 59.6925 99.2989 58.9257C99.4066 58.1588 98.8723 57.4495 98.1055 57.3418L90.3324 56.249C89.5655 56.1412 88.8563 56.6754 88.7485 57.4423C88.6762 57.9567 88.8928 58.4453 89.2746 58.7435Z" fill="black"/>
<path id="Vector_13" d="M38.9498 49.0276L31.1766 47.9347C30.4097 47.8269 29.7005 48.3611 29.5927 49.128C29.5204 49.6424 29.7369 50.1309 30.1188 50.4292C30.3062 50.5757 30.5336 50.6764 30.7861 50.7119L38.5592 51.8048C39.3261 51.9125 40.0353 51.3783 40.1431 50.6114C40.2511 49.8445 39.7163 49.1351 38.9498 49.0276Z" fill="black"/>
<path id="Vector_14" d="M87.2005 44.8335C87.296 45.07 87.4487 45.2661 87.6362 45.4126C88.0181 45.711 88.5445 45.8028 89.0261 45.6082L96.3039 42.6674C97.022 42.3773 97.3688 41.5599 97.0787 40.8418C96.7887 40.1239 95.9713 39.7769 95.2531 40.0671L87.9753 43.008C87.2572 43.2981 86.9105 44.1155 87.2005 44.8335Z" fill="black"/>
</g>
</g>
<defs>
<clipPath id="clip0_580_309">
<rect width="85.2353" height="85.2353" fill="white" transform="translate(52.5308 0.0548096) rotate(38)"/>
</clipPath>
</defs>
</svg>
